<svg version="1.2" xmlns="http://www.w3.org/2000/svg" viewBox="0 0 1640 664" width="1640" height="664"><style>.s0{fill:#575757}.s1{fill:#404040}.s2{fill:#ffffff}.s3{fill:#ebebeb}</style><path class="s0" d="m55.8 445.6l-22.8-255.6h250.3l-22.7 255.4l-102.6 28.5" /><path class="s1" d="m158.2 452.1v-241.1h102.3l-19.5 218" /><path class="s2" d="m214.6 252.4c1.3 0 2.4 1.4 3.1 4.2c0.6 2.3 1.7 7.2 2.4 10.9c0.7 4.1 0.9 10.8 0.5 16.8c-0.4 5.6-1.6 14.2-4.9 28l5.5 18c3 9.8 6 21 6.8 24.7c0.7 3.6 1 9.2 0.7 12.3c-0.4 3.1-1.7 8.1-3.1 11.2c-1.3 3.1-3.9 7.5-9 14l2.5 1.6c1.4 0.8 2.1 1.9 1.7 2.2c-0.5 0.4-2.1-0.1-3.6-1c-1.6-0.9-3.4-1.4-4-1.1c-0.6 0.3 1.5 2.2 4.8 4.2c3.2 2 6.1 4.7 6.3 5.9c0.5 2 0.2 1.9-3.3-0.7c-2.1-1.6-5.5-3.8-7.5-4.8c-2-1-4.3-1.5-5-1.1c-0.9 0.4 0.5 1.8 3.6 3.4c2.8 1.6 6.6 4.4 8.6 6.3c2.1 2 3.4 4 3.2 4.4c-0.3 0.5-2.6-0.9-5.1-3c-2.5-2.2-6.6-5-9.2-6.3c-3.3-1.6-5.9-2.1-8.2-1.7c-1.8 0.4-7.4 1.2-12.3 1.7c-6.6 0.8-11 2-17.1 5.1c-4.4 2.2-9.3 4-13.7 4v-134.6h3.9c3 0 6.7-1.8 15.4-7.5c6.4-4.3 16.7-9.7 23.3-12.4c6.5-2.6 12.7-4.7 13.7-4.7z" /><path class="s3" d="m101.7 252.4c0.9 0 6.9 2 13.1 4.5c7 2.7 16.3 7.5 23.6 12.2c9.1 6 13 7.9 19.9 7.9v134.6h-2.8c-1.5 0-6.4-1.8-10.9-4c-6.1-3.1-10.4-4.3-17.1-5.1c-5-0.5-10.5-1.3-12.4-1.7c-2.3-0.4-4.9 0.1-8.1 1.7c-2.7 1.3-6.8 4.1-9.3 6.3c-2.4 2.1-4.7 3.5-4.9 3c-0.3-0.4 1.1-2.4 3-4.4c2-1.9 5.9-4.7 8.7-6.3c3.1-1.6 4.5-3 3.6-3.4c-0.8-0.4-3 0.1-5 1.1c-2.1 1-5.4 3.2-7.5 4.8c-3.5 2.6-3.7 2.7-3.3 0.7c0.2-1.2 3.1-3.9 6.3-5.9c3.3-2 5.4-3.9 4.8-4.2c-0.6-0.3-2.4 0.2-4 1.1c-1.5 0.9-3.1 1.4-3.6 1c-0.5-0.3 0.3-1.4 4.2-3.8l-3.3-4.2c-1.9-2.3-4.4-6.7-5.7-9.8c-1.4-3.1-2.8-8.1-3.1-11.2c-0.3-3.1 0-8.7 0.7-12.3c0.7-3.7 3.7-14.6 12.2-41.5l-2.1-9.6c-1.1-5.2-2.4-14-2.7-19.6c-0.5-6-0.2-12.7 0.5-16.8c0.7-3.7 1.8-8.6 2.4-10.9c0.7-2.4 1.9-4.2 2.8-4.2z" /><path class="s0" d="m130.9 369.2c-4.5 0-8.3-6.7-8.3-15c0-8.4 3.8-15.1 8.3-15.1c4.6 0 8.3 6.7 8.3 15.1c0 8.3-3.7 15-8.3 15z" /><path class="s1" d="m185.4 369.2c-4.5 0-8.3-6.7-8.3-15c0-8.4 3.8-15.1 8.3-15.1c4.6 0 8.3 6.7 8.3 15.1c0 8.3-3.7 15-8.3 15z" /><path fill="#ebebeb" aria-label="WEBKITTY"  d="m525.4 229.4l-44.1 173.7l-45.9-173.7h-18.3l-45.6 172.2l-43.8-172.2h-23.1l54.6 204.6h23.1l43.8-164.4l42.6 164.4h23.4l54.6-204.6zm51.6 204.6h115.5v-18.6h-93v-77.4h72v-18.3h-72v-71.4h92.1v-18.9h-114.6zm250.2-110.1c17.1-6.9 26.7-21.6 26.7-42.3c0-31.2-21.9-52.2-58.5-52.2h-67.5v204.6h74.4c38.7 0 61.8-22.5 61.8-58.8c0-28.5-14.1-45.3-36.9-51.3zm-76.8-75.6h44.7c21.9 0 35.1 12 35.1 33.3c0 22.5-10.2 35.1-32.1 35.1h-47.7zm48.9 167.1h-48.9v-80.1h48.9c25.8 0 41.1 15.3 41.1 39.9c0 24.6-15.3 40.2-41.1 40.2z" /><path fill="#ffffff" aria-label="WEBKITTY"  d="m1014.4 434h25.5l-82.5-114l76.5-90.6h-24.9l-86.4 103.5v-103.5h-22.5v204.6h22.5v-72.9l21.6-25.5zm42 0h62.1v-19.8h-19.8v-165h19.8v-19.8h-62.1v19.8h19.8v165h-19.8zm147.6 0h22.2v-186h64.5v-18.6h-151.2v18.6h64.5zm160.2 0h22.2v-186h64.5v-18.6h-151.2v18.6h64.5zm220.2-204.6l-55.2 102l-55.8-102h-22.5l65.7 120v84.6h22.2v-83.7l66.3-120.9z" /></svg>