<svg version="1.2" xmlns="http://www.w3.org/2000/svg" viewBox="0 0 1640 358" width="1640" height="358"><style>.s0{fill:#575757}.s1{fill:#404040}.s2{fill:#ffffff}.s3{fill:#ebebeb}</style><path class="s0" d="m55.8 292.6l-22.8-255.6h250.3l-22.7 255.4l-102.6 28.5" /><path class="s1" d="m158.2 299.1v-241.1h102.3l-19.5 218" /><path class="s2" d="m214.6 99.4c1.3 0 2.4 1.4 3.1 4.2c0.6 2.3 1.7 7.2 2.4 10.9c0.7 4.1 0.9 10.8 0.5 16.8c-0.4 5.6-1.6 14.2-4.9 28l5.5 18c3 9.8 6 21 6.8 24.7c0.7 3.6 1 9.2 0.7 12.3c-0.4 3.1-1.7 8.1-3.1 11.2c-1.3 3.1-3.9 7.5-9 14l2.5 1.6c1.4 0.8 2.1 1.9 1.7 2.2c-0.5 0.4-2.1-0.1-3.6-1c-1.6-0.9-3.4-1.4-4-1.1c-0.6 0.3 1.5 2.2 4.8 4.2c3.2 2 6.1 4.7 6.3 5.9c0.5 2 0.2 1.9-3.3-0.7c-2.1-1.6-5.5-3.8-7.5-4.8c-2-1-4.3-1.5-5-1.1c-0.9 0.4 0.5 1.8 3.6 3.4c2.8 1.6 6.6 4.4 8.6 6.3c2.1 2 3.4 4 3.2 4.4c-0.3 0.5-2.6-0.9-5.1-3c-2.5-2.2-6.6-5-9.2-6.3c-3.3-1.6-5.9-2.1-8.2-1.7c-1.8 0.4-7.4 1.2-12.3 1.7c-6.6 0.8-11 2-17.1 5.1c-4.4 2.2-9.3 4-13.7 4v-134.6h3.9c3 0 6.7-1.8 15.4-7.5c6.4-4.3 16.7-9.7 23.3-12.4c6.5-2.6 12.7-4.7 13.7-4.7z" /><path class="s3" d="m101.7 99.4c0.9 0 6.9 2 13.1 4.5c7 2.7 16.3 7.5 23.6 12.2c9.1 6 13 7.9 19.9 7.9v134.6h-2.8c-1.5 0-6.4-1.8-10.9-4c-6.1-3.1-10.4-4.3-17.1-5.1c-5-0.5-10.5-1.3-12.4-1.7c-2.3-0.4-4.9 0.1-8.1 1.7c-2.7 1.3-6.8 4.1-9.3 6.3c-2.4 2.1-4.7 3.5-4.9 3c-0.3-0.4 1.1-2.4 3-4.4c2-1.9 5.9-4.7 8.7-6.3c3.1-1.6 4.5-3 3.6-3.4c-0.8-0.4-3 0.1-5 1.1c-2.1 1-5.4 3.2-7.5 4.8c-3.5 2.6-3.7 2.7-3.3 0.7c0.2-1.2 3.1-3.9 6.3-5.9c3.3-2 5.4-3.9 4.8-4.2c-0.6-0.3-2.4 0.2-4 1.1c-1.5 0.9-3.1 1.4-3.6 1c-0.5-0.3 0.3-1.4 4.2-3.8l-3.3-4.2c-1.9-2.3-4.4-6.7-5.7-9.8c-1.4-3.1-2.8-8.1-3.1-11.2c-0.3-3.1 0-8.7 0.7-12.3c0.7-3.7 3.7-14.6 12.2-41.5l-2.1-9.6c-1.1-5.2-2.4-14-2.7-19.6c-0.5-6-0.2-12.7 0.5-16.8c0.7-3.7 1.8-8.6 2.4-10.9c0.7-2.4 1.9-4.2 2.8-4.2z" /><path class="s0" d="m130.9 216.2c-4.5 0-8.3-6.7-8.3-15c0-8.4 3.8-15.1 8.3-15.1c4.6 0 8.3 6.7 8.3 15.1c0 8.3-3.7 15-8.3 15z" /><path class="s1" d="m185.4 216.2c-4.5 0-8.3-6.7-8.3-15c0-8.4 3.8-15.1 8.3-15.1c4.6 0 8.3 6.7 8.3 15.1c0 8.3-3.7 15-8.3 15z" /><path fill-rule="evenodd" class="s0" d="m546.7 76.4l-54.6 204.6h-23.4l-42.6-164.4l-43.8 164.4h-23.1l-54.6-204.6h23.1l43.8 172.2l45.6-172.2h18.3l45.9 173.7l44.1-173.7zm30.3 0h114.6v18.9h-92.1v71.4h72v18.3h-72v77.4h93v18.6h-115.5zm287.1 145.8c0 36.3-23.1 58.8-61.8 58.8h-74.4v-204.6h67.5c36.6 0 58.5 21 58.5 52.2c0 20.7-9.6 35.4-26.7 42.3c22.8 6 36.9 22.8 36.9 51.3zm-113.7-58.5h47.7c21.9 0 32.1-12.6 32.1-35.1c0-21.3-13.2-33.3-35.1-33.3h-44.7zm90 58.5c0-24.6-15.3-39.9-41.1-39.9h-48.9v80.1h48.9c25.8 0 41.1-15.6 41.1-40.2z" /><path class="s1" d="m944.2 182.6l-21.6 25.5v72.9h-22.5v-204.6h22.5v103.5l86.4-103.5h24.9l-76.5 90.6l82.5 114h-25.5zm112.2 78.6h19.8v-165h-19.8v-19.8h62.1v19.8h-19.8v165h19.8v19.8h-62.1zm147.6-166.2h-64.5v-18.6h151.2v18.6h-64.5v186h-22.2zm160.2 0h-64.5v-18.6h151.2v18.6h-64.5v186h-22.2zm240.9-18.6l-66.3 120.9v83.7h-22.2v-84.6l-65.7-120h22.5l55.8 102l55.2-102z" /></svg>