<svg version="1.2" xmlns="http://www.w3.org/2000/svg" viewBox="0 0 512 512" width="512" height="512"><style>.s0{fill:#575757}.s1{fill:#404040}.s2{fill:#ffffff}.s3{fill:#ebebeb}</style><path class="s0" d="m107.6 420l-33-370.4h362.8l-33 370.2l-148.7 41.2" /><path class="s1" d="m256 429.5v-349.5h148.3l-28.3 316" /><path class="s2" d="m337.8 140c1.9 0 3.4 2 4.5 6.1c0.8 3.3 2.4 10.5 3.4 15.8c1.1 5.9 1.4 15.7 0.8 24.4c-0.6 8.1-2.4 20.5-7.1 40.6l8 26c4.3 14.3 8.7 30.4 9.8 35.8c1 5.3 1.4 13.4 1 17.8c-0.5 4.5-2.5 11.8-4.4 16.3c-1.9 4.5-5.7 10.9-13.1 20.3l3.6 2.3c2 1.2 3.1 2.7 2.5 3.2c-0.7 0.6-3.1-0.1-5.3-1.4c-2.3-1.4-4.8-2.1-5.7-1.7c-0.9 0.5 2.2 3.2 6.9 6.1c4.7 2.9 8.8 6.8 9.2 8.6c0.6 2.9 0.2 2.8-4.9-1.1c-3-2.3-7.9-5.4-10.8-6.9c-2.9-1.4-6.2-2.1-7.3-1.6c-1.3 0.6 0.8 2.6 5.3 5c4 2.2 9.6 6.3 12.5 9.1c2.9 2.9 4.9 5.8 4.5 6.4c-0.4 0.7-3.7-1.3-7.3-4.4c-3.6-3.2-9.6-7.3-13.4-9.1c-4.7-2.4-8.5-3.1-11.8-2.5c-2.6 0.6-10.7 1.7-17.8 2.5c-9.7 1.1-16 2.9-24.8 7.3c-6.5 3.2-13.6 5.8-19.9 5.8v-195h5.7c4.3 0 9.7-2.6 22.3-10.9c9.3-6.2 24.2-14 33.7-17.9c9.4-3.8 18.4-6.9 19.9-6.9z" /><path class="s3" d="m174.2 140c1.3 0 9.9 2.9 19 6.5c10.1 3.9 23.6 10.9 34.1 17.8c13.3 8.7 18.9 11.4 28.9 11.4v195h-4.1c-2.2 0-9.3-2.6-15.8-5.8c-8.8-4.4-15.1-6.2-24.8-7.3c-7.2-0.8-15.2-1.9-17.9-2.5c-3.3-0.6-7.1 0.1-11.8 2.5c-3.8 1.8-9.8 5.9-13.4 9.1c-3.5 3.1-6.8 5.1-7.2 4.4c-0.4-0.6 1.6-3.5 4.4-6.4c2.9-2.8 8.6-6.9 12.6-9.1c4.5-2.4 6.5-4.4 5.3-5c-1.2-0.5-4.4 0.2-7.3 1.6c-3 1.5-7.8 4.6-10.9 6.9c-5 3.9-5.4 4-4.8 1.1c0.4-1.8 4.5-5.7 9.2-8.6c4.7-2.9 7.8-5.6 6.9-6.1c-0.9-0.4-3.5 0.3-5.7 1.7c-2.3 1.3-4.6 2-5.3 1.4c-0.7-0.5 0.4-2 6.1-5.5l-4.8-6.1c-2.7-3.3-6.4-9.7-8.3-14.2c-2-4.5-4-11.8-4.4-16.3c-0.5-4.4 0-12.5 1-17.8c1-5.4 5.4-21.1 17.6-60.1l-3-13.9c-1.6-7.6-3.4-20.3-3.9-28.4c-0.7-8.7-0.3-18.5 0.8-24.4c1-5.3 2.5-12.5 3.4-15.8c1-3.5 2.7-6.1 4.1-6.1z" /><path class="s0" d="m216.5 309.3c-6.6 0-12-9.7-12-21.8c0-12.1 5.4-21.8 12-21.8c6.6 0 12 9.7 12 21.8c0 12.1-5.4 21.8-12 21.8z" /><path class="s1" d="m295.5 309.3c-6.6 0-12-9.7-12-21.8c0-12.1 5.4-21.8 12-21.8c6.6 0 12 9.7 12 21.8c0 12.1-5.4 21.8-12 21.8z" /></svg>